<svg width="22" height="22" viewBox="0 0 22 22" fill="none" xmlns="http://www.w3.org/2000/svg">
<path d="M13.0469 19.9062C13.5156 19.4375 13.4688 18.7344 13.0469 18.2656L7.375 12.875H20.875C21.4844 12.875 22 12.4062 22 11.75V10.25C22 9.64062 21.4844 9.125 20.875 9.125H7.375L13.0469 3.78125C13.4688 3.3125 13.5156 2.60938 13.0469 2.14062L12.0156 1.10938C11.5938 0.6875 10.8438 0.6875 10.4219 1.10938L1.32812 10.25C0.859375 10.6719 0.859375 11.375 1.32812 11.7969L10.4219 20.9375C10.8438 21.3594 11.5469 21.3594 12.0156 20.9375L13.0469 19.9062Z" fill="white"/>
</svg>
