<svg width="25" height="22" viewBox="0 0 25 22" fill="none" xmlns="http://www.w3.org/2000/svg">
<path d="M13 0.5C6.34375 0.5 1 4.90625 1 10.25C1 12.5 1.89062 14.5625 3.4375 16.2031C2.78125 18.0312 1.32812 19.625 1.28125 19.625C0.953125 19.9531 0.90625 20.4219 1.04688 20.8438C1.23438 21.2656 1.65625 21.5 2.125 21.5C4.98438 21.5 7.28125 20.3281 8.64062 19.3438C10 19.7656 11.4531 20 13 20C19.6094 20 25 15.6406 25 10.25C25 4.90625 19.6094 0.5 13 0.5ZM13 17.75C11.7344 17.75 10.4688 17.5625 9.29688 17.1875L8.21875 16.8594L7.32812 17.5156C6.67188 17.9844 5.73438 18.5 4.60938 18.875C4.98438 18.3125 5.3125 17.6562 5.54688 17L6.0625 15.6875L5.07812 14.6562C4.23438 13.7656 3.25 12.2656 3.25 10.25C3.25 6.125 7.60938 2.75 13 2.75C18.3438 2.75 22.75 6.125 22.75 10.25C22.75 14.4219 18.3438 17.75 13 17.75Z" fill="white"/>
</svg>
