<svg width="26" height="23" viewBox="0 0 26 23" fill="none" xmlns="http://www.w3.org/2000/svg">
<path d="M22.6562 2.95312C20.0781 0.75 16.2812 1.17188 13.8906 3.60938L13 4.54688L12.0625 3.60938C9.71875 1.17188 5.875 0.75 3.29688 2.95312C0.34375 5.48438 0.203125 9.98438 2.82812 12.7031L11.9219 22.0781C12.4844 22.6875 13.4688 22.6875 14.0312 22.0781L23.125 12.7031C25.75 9.98438 25.6094 5.48438 22.6562 2.95312Z" fill="white"/>
<path d="M22.6562 2.95312L23.307 2.19387L23.3059 2.19289L22.6562 2.95312ZM13.8906 3.60938L13.1767 2.90917L13.1711 2.91485L13.1656 2.92063L13.8906 3.60938ZM13 4.54688L12.2929 5.25398L13.0184 5.97945L13.725 5.23562L13 4.54688ZM12.0625 3.60938L11.3417 4.30248L11.3485 4.30955L11.3554 4.31648L12.0625 3.60938ZM3.29688 2.95312L2.64722 2.19289L2.64608 2.19387L3.29688 2.95312ZM2.82812 12.7031L2.10872 13.3977L2.11033 13.3994L2.82812 12.7031ZM11.9219 22.0781L12.6567 21.3998L12.6483 21.3908L12.6397 21.3819L11.9219 22.0781ZM14.0312 22.0781L13.3135 21.3819L13.3048 21.3908L13.2964 21.3998L14.0312 22.0781ZM23.125 12.7031L23.8428 13.3994L23.8444 13.3977L23.125 12.7031ZM23.3059 2.19289C20.2717 -0.399961 15.8811 0.15175 13.1767 2.90917L14.6046 4.30958C16.6814 2.192 19.8845 1.89996 22.0066 3.71336L23.3059 2.19289ZM13.1656 2.92063L12.275 3.85813L13.725 5.23562L14.6156 4.29812L13.1656 2.92063ZM13.7071 3.83977L12.7696 2.90227L11.3554 4.31648L12.2929 5.25398L13.7071 3.83977ZM12.7833 2.91627C10.1196 0.14602 5.67756 -0.396671 2.64722 2.19289L3.94653 3.71336C6.07244 1.89667 9.31786 2.19773 11.3417 4.30248L12.7833 2.91627ZM2.64608 2.19387C-0.750549 5.10527 -0.910077 10.2711 2.10872 13.3977L3.54753 12.0085C1.31633 9.69764 1.43805 5.86348 3.94767 3.71238L2.64608 2.19387ZM2.11033 13.3994L11.2041 22.7744L12.6397 21.3819L3.54592 12.0069L2.11033 13.3994ZM11.1871 22.7564C12.1455 23.7947 13.8076 23.7947 14.7661 22.7564L13.2964 21.3998C13.1299 21.5803 12.8232 21.5803 12.6567 21.3998L11.1871 22.7564ZM14.749 22.7744L23.8428 13.3994L22.4072 12.0069L13.3135 21.3819L14.749 22.7744ZM23.8444 13.3977C26.8632 10.2711 26.7037 5.10527 23.307 2.19387L22.0055 3.71238C24.5151 5.86348 24.6368 9.69764 22.4056 12.0085L23.8444 13.3977Z" fill="white"/>
</svg>
