<svg width="26" height="26" viewBox="0 0 26 26" fill="none" xmlns="http://www.w3.org/2000/svg">
<path d="M16.2811 9.71875C15.9999 9.4375 15.6717 9.15625 15.3436 8.92188C15.0155 8.6875 14.6405 8.73438 14.3592 8.96875L13.3749 9.95312C12.9999 10.375 12.8124 10.8906 12.8124 11.3594C12.8124 11.6406 12.953 11.8281 13.1405 11.9688C13.2811 12.0625 13.4686 12.2031 13.6561 12.3438C14.9686 13.7031 14.9686 15.8125 13.6561 17.125L10.4686 20.2656C9.15612 21.625 6.99987 21.625 5.68737 20.2656C4.37487 18.9531 4.42175 16.7969 5.73425 15.4844L6.34362 14.875C6.578 14.6875 6.62487 14.3594 6.53112 14.0781C6.24987 13.2812 6.10925 12.4375 6.06237 11.6406C6.06237 10.9844 5.2655 10.6562 4.79675 11.125L3.06237 12.8594C0.296745 15.625 0.296745 20.1719 3.06237 22.9375C5.828 25.7031 10.3749 25.7031 13.1405 22.9375L16.2811 19.7969C16.2811 19.7969 16.2811 19.7969 16.2811 19.75C19.0467 17.0312 19.0936 12.5312 16.2811 9.71875ZM22.8905 3.10938C20.1249 0.34375 15.578 0.34375 12.8124 3.10938L9.67175 6.25C9.67175 6.25 9.67175 6.25 9.67175 6.29688C6.90612 9.01562 6.85925 13.5156 9.67175 16.3281C9.953 16.6094 10.2811 16.8906 10.6092 17.125C10.9374 17.3594 11.3124 17.3125 11.5936 17.0781L12.578 16.0938C12.953 15.6719 13.1405 15.1562 13.1405 14.6875C13.1405 14.4062 12.9999 14.2188 12.8124 14.0781C12.6717 13.9844 12.4842 13.8438 12.2967 13.7031C10.9842 12.3438 10.9842 10.2344 12.2967 8.92188L15.4842 5.78125C16.7967 4.42188 18.953 4.42188 20.2655 5.78125C21.578 7.09375 21.5311 9.25 20.2186 10.5625L19.6092 11.1719C19.3749 11.3594 19.328 11.6875 19.4217 11.9688C19.703 12.7656 19.8436 13.6094 19.8905 14.4062C19.8905 15.0625 20.6874 15.3906 21.1561 14.9219L22.8905 13.1875C25.6561 10.4219 25.6561 5.875 22.8905 3.10938Z" fill="white"/>
</svg>
