<svg width="30" height="24" viewBox="0 0 30 24" fill="none" xmlns="http://www.w3.org/2000/svg">
<path d="M28.4998 0H7.49984C6.65609 0 5.99984 0.703125 5.99984 1.5V6H13.4998V3H22.4998V18H28.4998C29.2967 18 29.9998 17.3438 29.9998 16.5V1.5C29.9998 0.703125 29.2967 0 28.4998 0ZM10.8748 4.82812C10.8748 5.0625 10.6405 5.25 10.453 5.25H9.04671C8.81234 5.25 8.62484 5.0625 8.62484 4.82812V3.42188C8.62484 3.23438 8.81234 3 9.04671 3H10.453C10.6405 3 10.8748 3.23438 10.8748 3.42188V4.82812ZM27.3748 14.5781C27.3748 14.8125 27.1405 15 26.953 15H25.5467C25.3123 15 25.1248 14.8125 25.1248 14.5781V13.1719C25.1248 12.9844 25.3123 12.75 25.5467 12.75H26.953C27.1405 12.75 27.3748 12.9844 27.3748 13.1719V14.5781ZM27.3748 9.70312C27.3748 9.9375 27.1405 10.125 26.953 10.125H25.5467C25.3123 10.125 25.1248 9.9375 25.1248 9.70312V8.29688C25.1248 8.10938 25.3123 7.875 25.5467 7.875H26.953C27.1405 7.875 27.3748 8.10938 27.3748 8.29688V9.70312ZM27.3748 4.82812C27.3748 5.0625 27.1405 5.25 26.953 5.25H25.5467C25.3123 5.25 25.1248 5.0625 25.1248 4.82812V3.42188C25.1248 3.23438 25.3123 3 25.5467 3H26.953C27.1405 3 27.3748 3.23438 27.3748 3.42188V4.82812ZM19.4998 7.5H1.49984C0.65609 7.5 -0.000160217 8.20312 -0.000160217 9V22.5C-0.000160217 23.3438 0.65609 24 1.49984 24H19.4998C20.2967 24 20.9998 23.3438 20.9998 22.5V9C20.9998 8.20312 20.2967 7.5 19.4998 7.5ZM4.49984 10.5C5.29671 10.5 5.99984 11.2031 5.99984 12C5.99984 12.8438 5.29671 13.5 4.49984 13.5C3.65609 13.5 2.99984 12.8438 2.99984 12C2.99984 11.2031 3.65609 10.5 4.49984 10.5ZM17.9998 21H2.99984V19.5L5.99984 16.5L7.49984 18L13.4998 12L17.9998 16.5V21Z" fill="white"/>
</svg>
