<svg width="31" height="31" viewBox="0 0 31 31" fill="none" xmlns="http://www.w3.org/2000/svg">
<path d="M29.5898 26.1515L23.7305 20.2921C23.4375 20.0577 23.0859 19.882 22.7344 19.882H21.7969C23.3789 17.8312 24.375 15.2531 24.375 12.382C24.375 5.70227 18.8672 0.194458 12.1875 0.194458C5.44922 0.194458 0 5.70227 0 12.382C0 19.1202 5.44922 24.5695 12.1875 24.5695C15 24.5695 17.5781 23.632 19.6875 21.9913V22.9874C19.6875 23.339 19.8047 23.6906 20.0977 23.9835L25.8984 29.7843C26.4844 30.3702 27.3633 30.3702 27.8906 29.7843L29.5312 28.1437C30.1172 27.6163 30.1172 26.7374 29.5898 26.1515ZM12.1875 19.882C8.02734 19.882 4.6875 16.5421 4.6875 12.382C4.6875 8.2804 8.02734 4.88196 12.1875 4.88196C16.2891 4.88196 19.6875 8.2804 19.6875 12.382C19.6875 16.5421 16.2891 19.882 12.1875 19.882Z" fill="#FBFBFB"/>
</svg>
